<svg width="20" height="20" viewBox="0 0 20 20" fill="none" xmlns="http://www.w3.org/2000/svg">
<path d="M16.6654 6.66667V13.9833C16.6654 15.5297 15.4118 16.7833 13.8654 16.7833H6.13203C4.58563 16.7833 3.33203 15.5297 3.33203 13.9833V5.3C3.33203 3.7536 4.58563 2.5 6.13203 2.5H12.7656" stroke="white" stroke-width="1.5" stroke-linecap="round"/>
<path d="M12.9663 2.58055L16.5861 6.20038C16.7582 6.37245 16.6363 6.66667 16.393 6.66667H12.7731C12.6223 6.66667 12.5 6.54438 12.5 6.39352V2.77369C12.5 2.53035 12.7942 2.40848 12.9663 2.58055Z" stroke="white" stroke-width="1.5"/>
<path d="M8.33073 10L9.16534 8.74808C9.56117 8.15434 10.4336 8.15434 10.8294 8.74808L11.6641 10" stroke="white" stroke-width="1.5" stroke-linecap="round" stroke-dasharray="0.2 0.2"/>
<path d="M10.0352 8.55078V14.3841" stroke="white" stroke-width="1.5" stroke-linecap="round"/>
</svg>
