<svg width="16" height="16" viewBox="0 0 16 16" fill="none" xmlns="http://www.w3.org/2000/svg">
<path fill-rule="evenodd" clip-rule="evenodd" d="M9.80475 8.86257C10.0654 9.12323 10.0654 9.54457 9.80475 9.80523C9.67475 9.93524 9.50408 10.0006 9.33341 10.0006C9.16275 10.0006 8.99208 9.93524 8.86208 9.80523L8.00008 8.94323L7.13808 9.80523C7.00808 9.93524 6.83741 10.0006 6.66675 10.0006C6.49608 10.0006 6.32541 9.93524 6.19541 9.80523C5.93475 9.54457 5.93475 9.12323 6.19541 8.86257L7.05741 8.00057L6.19541 7.13857C5.93475 6.8779 5.93475 6.45657 6.19541 6.1959C6.45608 5.93523 6.87741 5.93523 7.13808 6.1959L8.00008 7.0579L8.86208 6.1959C9.12275 5.93523 9.54408 5.93523 9.80475 6.1959C10.0654 6.45657 10.0654 6.8779 9.80475 7.13857L8.94275 8.00057L9.80475 8.86257ZM8.00016 1.33398C4.32416 1.33398 1.3335 4.32465 1.3335 8.00065C1.3335 11.6767 4.32416 14.6673 8.00016 14.6673C11.6762 14.6673 14.6668 11.6767 14.6668 8.00065C14.6668 4.32465 11.6762 1.33398 8.00016 1.33398Z" fill="#B8BCBF"/>
</svg>
