<svg width="24" height="24" viewBox="0 0 24 24" fill="none" xmlns="http://www.w3.org/2000/svg">
<path d="M5.79901 18.1775L13.4884 4.85909L15.4367 5.98391C15.8613 6.22908 16.0069 6.77213 15.7617 7.19683L15.0889 8.36207C14.7985 8.865 14.7198 9.46273 14.8702 10.0237L15.177 11.1688C15.4184 12.0698 15.0626 13.0248 14.2905 13.5481L6.49934 18.8291C6.06802 19.1215 5.53848 18.6288 5.79901 18.1775Z" fill="#FF891A"/>
<path d="M5.80041 18.1775L13.4898 4.85908L11.5416 3.73426C11.1169 3.48906 10.5738 3.63457 10.3286 4.05927L9.65589 5.22451C9.36552 5.72743 8.88723 6.09446 8.32628 6.24474L7.18111 6.55158C6.28015 6.793 5.63099 7.57864 5.56383 8.50899L4.88597 17.8968C4.84843 18.4165 5.53987 18.6288 5.80041 18.1775Z" fill="#FFC058"/>
<path d="M9.29076 11.4099L5.42844 18.0997C5.33228 18.2662 5.374 18.4842 5.53398 18.5909C5.70927 18.7078 5.94394 18.651 6.04761 18.4714L9.90713 11.7866C10.1598 11.3489 10.5875 11.0318 11.0854 10.9444C11.5458 10.8636 11.965 10.5687 12.1837 10.1023C12.4937 9.44141 12.271 8.63918 11.6655 8.23148C10.9385 7.742 9.96225 7.97674 9.53152 8.7228C9.30595 9.11349 9.27671 9.56359 9.41309 9.95899C9.5793 10.4407 9.54556 10.9686 9.29076 11.4099Z" fill="#FAFBFB"/>
<path d="M2.43575 21.2123L11.5973 21.2123C11.714 21.2123 11.8086 21.3886 11.8086 21.6061C11.8086 21.8237 11.714 22 11.5973 22L2.43575 22C2.31907 22 2.22446 21.8237 2.22446 21.6061C2.22446 21.3886 2.31907 21.2123 2.43575 21.2123Z" fill="#FFAE09"/>
<path d="M11.3004 2.31758L16.7827 5.48278C17.0865 5.65817 17.1906 6.04665 17.0152 6.35043L16.466 7.30165C16.2906 7.60543 15.9021 7.70952 15.5984 7.53413L10.1161 4.36894C9.81231 4.19355 9.70822 3.80507 9.8836 3.50129L10.4328 2.55007C10.6082 2.24629 10.9967 2.1422 11.3004 2.31758Z" fill="#FF891A"/>
<path fill-rule="evenodd" clip-rule="evenodd" d="M22.7204 14.9012C22.9192 14.9532 23.0381 15.1565 22.9861 15.3552C22.6809 16.5217 22.0621 17.7386 21.3015 18.7136C20.5499 19.6771 19.6126 20.4638 18.6459 20.6708C18.2741 20.7504 17.9322 20.7213 17.6323 20.59C17.3347 20.4597 17.1058 20.2406 16.9367 19.9842C16.8458 19.8463 16.7704 19.6951 16.7091 19.5354C16.0522 20.0187 15.405 20.4267 15.0106 20.6357C14.8291 20.7319 14.6039 20.6627 14.5077 20.4812C14.4115 20.2997 14.4807 20.0745 14.6622 19.9783C15.0733 19.7605 15.8116 19.2893 16.5209 18.7466C16.4984 18.5548 16.4904 18.3616 16.4952 18.1733C16.5111 17.5489 16.6696 16.8989 16.9896 16.4578C17.1527 16.233 17.3745 16.0406 17.6614 15.9606C17.9551 15.8787 18.2626 15.9299 18.5599 16.0924C18.8033 16.2254 18.9738 16.4326 19.0159 16.7062C19.0543 16.9558 18.9753 17.1997 18.869 17.4061C18.6565 17.8188 18.24 18.2618 17.7842 18.6697C17.6405 18.7984 17.4893 18.9267 17.334 19.053C17.3875 19.2521 17.4626 19.4302 17.5578 19.5746C17.6646 19.7366 17.79 19.8469 17.9308 19.9085C18.0693 19.9692 18.2499 19.9947 18.4902 19.9433C19.2028 19.7907 20.0031 19.1685 20.7149 18.256C21.4179 17.3549 21.9886 16.2285 22.2664 15.1669C22.3184 14.9681 22.5217 14.8492 22.7204 14.9012ZM17.24 18.1581C17.2561 18.1439 17.2721 18.1297 17.288 18.1154C17.7322 17.7178 18.061 17.3502 18.2076 17.0655C18.2808 16.9233 18.2848 16.8468 18.2806 16.8192C18.2805 16.819 18.2805 16.8187 18.2805 16.8183C18.28 16.8124 18.2779 16.7861 18.2031 16.7452C18.0408 16.6565 17.9329 16.6573 17.8612 16.6773C17.7825 16.6992 17.6888 16.7611 17.5918 16.8947C17.3961 17.1646 17.2586 17.6332 17.24 18.1581Z" fill="#FF891A"/>
</svg>
