<svg width="24" height="24" viewBox="0 0 24 24" fill="none" xmlns="http://www.w3.org/2000/svg">
<path fill-rule="evenodd" clip-rule="evenodd" d="M3.33663 2.47668C2.23544 2.47668 1.34141 3.36686 1.33665 4.46805L1.25928 22.3824H6.47904L6.56501 18.6443H11.6277L11.5418 22.3824H16.7617L16.839 4.48532C16.8438 3.37739 15.9469 2.47668 14.839 2.47668H3.33663ZM5.72247 11.8231H2.51981V15.0258H5.72247V11.8231ZM2.51981 6.52688H5.72247V9.72954H2.51981V6.52688ZM10.6105 11.8231H7.40784V15.0258H10.6105V11.8231ZM7.40784 6.52688H10.6105V9.72954H7.40784V6.52688ZM12.4704 6.52688H15.673V9.72954H12.4704V6.52688ZM15.673 11.8231H12.4704V15.0258H15.673V11.8231Z" fill="#71787E"/>
<path d="M19.0232 9.72949H21.9999C23.1045 9.72949 23.9999 10.6249 23.9999 11.7295V22.3824H19.0232V9.72949Z" fill="#71787E"/>
</svg>
