<svg width="24" height="24" viewBox="0 0 24 24" fill="none" xmlns="http://www.w3.org/2000/svg">
<path fill-rule="evenodd" clip-rule="evenodd" d="M3.33663 2.47656C2.23544 2.47656 1.34141 3.36674 1.33665 4.46793L1.25928 22.3823H6.47904L6.56501 18.6441H11.6277L11.5418 22.3823H16.7617L16.839 4.4852C16.8438 3.37727 15.9469 2.47656 14.839 2.47656H3.33663ZM5.72247 11.823H2.51981V15.0257H5.72247V11.823ZM2.51981 6.52675H5.72247V9.72942H2.51981V6.52675ZM10.6105 11.823H7.40784V15.0257H10.6105V11.823ZM7.40784 6.52675H10.6105V9.72942H7.40784V6.52675ZM12.4704 6.52675H15.673V9.72942H12.4704V6.52675ZM15.673 11.823H12.4704V15.0257H15.673V11.823Z" fill="#2E6CF6"/>
<path d="M19.0232 9.72949H21.9999C23.1045 9.72949 23.9999 10.6249 23.9999 11.7295V22.3824H19.0232V9.72949Z" fill="#2E6CF6"/>
</svg>
