<svg width="18" height="18" viewBox="0 0 18 18" fill="none" xmlns="http://www.w3.org/2000/svg">
<path fill-rule="evenodd" clip-rule="evenodd" d="M12.3337 12.3337C12.3337 12.792 11.9587 13.167 11.5003 13.167C11.042 13.167 10.667 12.792 10.667 12.3337V9.00033C10.667 8.54199 11.042 8.16699 11.5003 8.16699C11.9587 8.16699 12.3337 8.54199 12.3337 9.00033V12.3337ZM7.33366 2.60699C7.33366 2.47783 7.51199 2.33366 7.75032 2.33366H10.2503C10.4887 2.33366 10.667 2.47783 10.667 2.60699V4.00033H7.33366V2.60699ZM7.33366 12.3337C7.33366 12.792 6.95866 13.167 6.50033 13.167C6.04199 13.167 5.66699 12.792 5.66699 12.3337V9.00033C5.66699 8.54199 6.04199 8.16699 6.50033 8.16699C6.95866 8.16699 7.33366 8.54199 7.33366 9.00033V12.3337ZM16.5003 4.00033H15.667H12.3337V2.60699C12.3337 1.53699 11.3995 0.666992 10.2503 0.666992H7.75033C6.60116 0.666992 5.66699 1.53699 5.66699 2.60699V4.00033H2.33366H1.50033C1.04199 4.00033 0.666992 4.37533 0.666992 4.83366C0.666992 5.29199 1.04199 5.66699 1.50033 5.66699H2.33366V14.8337C2.33366 16.212 3.45533 17.3337 4.83366 17.3337H13.167C14.5453 17.3337 15.667 16.212 15.667 14.8337V5.66699H16.5003C16.9587 5.66699 17.3337 5.29199 17.3337 4.83366C17.3337 4.37533 16.9587 4.00033 16.5003 4.00033Z" fill="#71787E"/>
</svg>
