<svg width="16" height="20" viewBox="0 0 16 20" fill="none" xmlns="http://www.w3.org/2000/svg">
<path fill-rule="evenodd" clip-rule="evenodd" d="M13.9655 4.72867L11.2715 2.03467L9.3235 3.98367L12.0185 6.67867L13.9655 4.72867ZM1.0905 15.9957C1.0605 15.9987 1.0305 15.9997 1.0005 15.9997C0.736503 15.9997 0.481503 15.8957 0.292503 15.7067C0.0835028 15.4967 -0.0224971 15.2047 0.00350286 14.9097L0.382503 10.7397C0.424503 10.2827 0.626503 9.85067 0.952503 9.52567L9.9485 0.529675C10.6505 -0.175325 11.9235 -0.140325 12.6645 0.598675L15.4025 3.33667L15.4035 3.33767C16.1685 4.10367 16.1995 5.32167 15.4715 6.05167L6.4745 15.0487C6.1495 15.3737 5.7185 15.5757 5.2605 15.6177L1.0905 15.9957ZM1 18H15C15.55 18 16 18.45 16 19C16 19.55 15.55 20 15 20H1C0.450003 20 2.85916e-06 19.55 2.85916e-06 19C2.85916e-06 18.45 0.450003 18 1 18Z" fill="#71787E"/>
</svg>
