<svg width="24" height="24" viewBox="0 0 24 24" fill="none" xmlns="http://www.w3.org/2000/svg">
<path fill-rule="evenodd" clip-rule="evenodd" d="M14 3.978L17.742 8H14.714C14.32 8 14 7.619 14 7.15V3.978ZM19.741 7.328L15.296 2.328C15.107 2.119 14.838 2 14.556 2H6.556C5.146 2 4 3.122 4 4.5V19.5C4 20.878 5.146 22 6.556 22H17.444C18.854 22 20 20.878 20 19.5V8C20 7.751 19.908 7.512 19.741 7.328Z" fill="#71787E"/>
<path fill-rule="evenodd" clip-rule="evenodd" d="M14 3.978L17.742 8H14.714C14.32 8 14 7.619 14 7.15V3.978ZM19.741 7.328L15.296 2.328C15.107 2.119 14.838 2 14.556 2H6.556C5.146 2 4 3.122 4 4.5V19.5C4 20.878 5.146 22 6.556 22H17.444C18.854 22 20 20.878 20 19.5V8C20 7.751 19.908 7.512 19.741 7.328Z" fill="#71787E"/>
<path fill-rule="evenodd" clip-rule="evenodd" d="M14.0245 13.3457L12.6788 12L13.6515 11.0267L14.9967 12.372L14.0245 13.3457ZM15.7148 11.6774L15.7143 11.6769L14.3471 10.3097C13.9771 9.94069 13.3415 9.92321 12.9909 10.2752L8.49889 14.7673C8.3361 14.9296 8.23524 15.1453 8.21427 15.3735L8.02502 17.4557C8.01203 17.603 8.06446 17.7489 8.16933 17.8537C8.2637 17.9481 8.39103 18 8.52236 18C8.53784 18 8.55282 17.9995 8.5678 17.998L10.65 17.8088C10.8787 17.7878 11.094 17.6874 11.2562 17.5251L15.7488 13.0326C16.1123 12.6681 16.0968 12.0599 15.7148 11.6774Z" fill="white"/>
</svg>
