<svg width="24" height="24" viewBox="0 0 24 24" fill="none" xmlns="http://www.w3.org/2000/svg">
<path fill-rule="evenodd" clip-rule="evenodd" d="M14 3.978L17.742 8H14.714C14.32 8 14 7.619 14 7.15V3.978ZM19.741 7.328L15.296 2.328C15.107 2.119 14.838 2 14.556 2H6.556C5.146 2 4 3.122 4 4.5V19.5C4 20.878 5.146 22 6.556 22H17.444C18.854 22 20 20.878 20 19.5V8C20 7.751 19.908 7.512 19.741 7.328Z" fill="#2E6CF6"/>
<path fill-rule="evenodd" clip-rule="evenodd" d="M14 3.978L17.742 8H14.714C14.32 8 14 7.619 14 7.15V3.978ZM19.741 7.328L15.296 2.328C15.107 2.119 14.838 2 14.556 2H6.556C5.146 2 4 3.122 4 4.5V19.5C4 20.878 5.146 22 6.556 22H17.444C18.854 22 20 20.878 20 19.5V8C20 7.751 19.908 7.512 19.741 7.328Z" fill="#2E6CF6"/>
<path fill-rule="evenodd" clip-rule="evenodd" d="M14.0244 13.3454L12.6787 11.9997L13.6514 11.0265L14.9967 12.3717L14.0244 13.3454ZM15.7148 11.6771L15.7143 11.6766L14.3471 10.3095C13.9771 9.94044 13.3414 9.92297 12.9909 10.275L8.49883 14.7671C8.33604 14.9293 8.23518 15.1451 8.21421 15.3733L8.02496 17.4555C8.01197 17.6028 8.0644 17.7486 8.16926 17.8535C8.26364 17.9478 8.39097 17.9998 8.5223 17.9998C8.53778 17.9998 8.55276 17.9993 8.56774 17.9978L10.65 17.8085C10.8787 17.7876 11.0939 17.6872 11.2562 17.5249L15.7487 13.0324C16.1123 12.6678 16.0968 12.0596 15.7148 11.6771Z" fill="white"/>
</svg>
