<svg width="14" height="14" viewBox="0 0 14 14" fill="none" xmlns="http://www.w3.org/2000/svg">
<path d="M8.9543 5.92195H4.0793C4.01055 5.92195 3.9543 5.9782 3.9543 6.04695V6.98445C3.9543 7.0532 4.01055 7.10945 4.0793 7.10945H8.9543C9.02305 7.10945 9.0793 7.0532 9.0793 6.98445V6.04695C9.0793 5.9782 9.02305 5.92195 8.9543 5.92195ZM13.3918 12.5469L11.1105 10.2657C13.0184 7.93914 12.8855 4.49226 10.7043 2.31257C8.3918 -0.00148928 4.63555 -0.00148928 2.31367 2.31257C-0.000390649 4.63445 -0.000390649 8.3907 2.31367 10.7032C4.49336 12.8844 7.94023 13.0173 10.2668 11.1094L12.548 13.3907C12.598 13.4344 12.6777 13.4344 12.7199 13.3907L13.3918 12.7188C13.4355 12.6766 13.4355 12.5969 13.3918 12.5469ZM9.87617 9.87507C8.01992 11.7298 5.01367 11.7298 3.15742 9.87507C1.30273 8.01882 1.30273 5.01257 3.15742 3.15632C5.01367 1.30164 8.01992 1.30164 9.87617 3.15632C11.7309 5.01257 11.7309 8.01882 9.87617 9.87507Z" fill="#262626"/>
</svg>
