<svg width="22" height="22" viewBox="0 0 22 22" fill="none" xmlns="http://www.w3.org/2000/svg">
<path d="M21.025 3.46812C21.0112 3.44333 20.9919 3.41854 20.9699 3.39925C20.8322 3.26152 20.6091 3.26152 20.4714 3.39925L15.7256 8.14557L13.8554 6.27514L18.6039 1.52607C18.626 1.50403 18.6425 1.482 18.659 1.4572C18.7582 1.28917 18.7031 1.0743 18.5351 0.975134C15.8303 -0.622581 12.2882 -0.256209 9.96082 2.06874C8.11541 3.91438 7.50395 6.53133 8.12918 8.88382L0.0589798 16.955C-0.0236503 17.0377 -0.0181418 17.1727 0.0672426 17.2581L4.74135 21.9327C4.82674 22.0181 4.96445 22.0237 5.04433 21.941L13.1118 13.8726C15.4667 14.5006 18.0834 13.8918 19.9315 12.0434C22.2562 9.71574 22.6225 6.17322 21.025 3.46812ZM18.5296 10.6386C16.9293 12.239 14.5275 12.5476 12.6188 11.5641L12.3764 11.8065L12.3736 11.8038L4.82674 19.3544L2.6453 17.1727L8.98303 10.8341C8.98303 10.8341 8.98303 10.8369 8.98578 10.8369L10.4401 9.38242C9.45677 7.47343 9.76526 5.07135 11.3655 3.47088C11.8816 2.95423 12.5032 2.5551 13.1877 2.30075C13.8722 2.0464 14.6036 1.94283 15.3318 1.99712L11.6713 5.65534C11.5059 5.82088 11.4131 6.04529 11.4131 6.27927C11.4131 6.51325 11.5059 6.73767 11.6713 6.90321L15.1004 10.3328C15.2659 10.4981 15.4903 10.591 15.7243 10.591C15.9582 10.591 16.1826 10.4981 16.3481 10.3328L20.0059 6.67457C20.1078 8.10149 19.6093 9.56148 18.5296 10.6386Z" fill="#262626" fill-opacity="0.9"/>
</svg>
