<?xml version="1.0" encoding="iso-8859-1"?>
<!-- Uploaded to: SVG Repo, www.svgrepo.com, Generator: SVG Repo Mixer Tools -->
<!DOCTYPE svg PUBLIC "-//W3C//DTD SVG 1.1//EN" "http://www.w3.org/Graphics/SVG/1.1/DTD/svg11.dtd">
<svg fill="#000000" version="1.1" id="Capa_1" xmlns="http://www.w3.org/2000/svg" xmlns:xlink="http://www.w3.org/1999/xlink" 
	 width="800px" height="800px" viewBox="0 0 169.345 169.346"
	 xml:space="preserve">
<g>
	<g>
		<path d="M147.577,77.072H73.021c-1.793,0-3.242,1.446-3.242,3.245c0,1.791,1.449,3.252,3.242,3.252h74.556
			c1.796,0,3.239-1.455,3.239-3.252C150.816,78.524,149.367,77.072,147.577,77.072z"/>
		<path d="M147.577,91.863H73.021c-1.793,0-3.242,1.449-3.242,3.251c0,1.803,1.449,3.245,3.242,3.245h74.556
			c1.796,0,3.239-1.442,3.239-3.245C150.816,93.318,149.367,91.863,147.577,91.863z"/>
		<path d="M147.577,106.666h-37.277c-1.803,0-3.252,1.455-3.252,3.251s1.449,3.245,3.252,3.245h37.277
			c1.796,0,3.239-1.442,3.239-3.245C150.816,108.115,149.367,106.666,147.577,106.666z"/>
		<path d="M50.817,96.625c4.552-3.058,7.69-9.104,7.69-14.542c0-7.675-6.217-13.905-13.898-13.905
			c-7.675,0-13.898,6.229-13.898,13.905c0,5.438,3.136,11.484,7.675,14.542c-10.875,2.758-18.949,12.227-18.949,19.229
			c0,8.281,50.336,8.281,50.336,0C69.779,108.852,61.71,99.383,50.817,96.625z M44.609,122.059l-7.06-7.045l5.937-14.358h-0.064
			l-2.298-2.648c1.121,0.401,2.268,0.651,3.486,0.651c1.215,0,2.363-0.237,3.483-0.64l-2.305,2.637h-0.058l5.943,14.358
			L44.609,122.059z"/>
		<path d="M149.184,37.968h-27.815c-0.353-1.702-2.119-3.77-5.456-6.022l-15.716-10.562c-8.543-5.742-22.512-5.742-31.045,0
			L53.432,31.945c-3.337,2.244-5.103,4.314-5.456,6.022H20.164C9.042,37.968,0,47.004,0,58.123v73.989
			c0,11.118,9.042,20.155,20.164,20.155h129.02c11.119,0,20.161-9.037,20.161-20.155V58.123
			C169.345,47.004,160.303,37.968,149.184,37.968z M84.669,23.415c4.731,0,8.573,3.836,8.573,8.574c0,4.74-3.842,8.573-8.573,8.573
			c-4.731,0-8.573-3.833-8.573-8.573C76.096,27.251,79.938,23.415,84.669,23.415z M161.277,132.112
			c0,6.667-5.425,12.093-12.093,12.093H20.158c-6.671,0-12.096-5.426-12.096-12.093V58.123c0-6.668,5.425-12.094,12.096-12.094
			h129.014c6.674,0,12.099,5.426,12.099,12.094v73.989H161.277z"/>
	</g>
</g>
</svg>