<svg width="24" height="24" viewBox="0 0 24 24" fill="none" xmlns="http://www.w3.org/2000/svg">
<path fill-rule="evenodd" clip-rule="evenodd" d="M14.714 8C14.32 8 14 7.619 14 7.15V3.978L17.742 8H14.714ZM19.74 7.328L15.296 2.328C15.107 2.119 14.838 2 14.556 2H6.556C5.147 2 4 3.122 4 4.5V19.5C4 20.878 5.147 22 6.556 22H17.444C18.854 22 20 20.878 20 19.5V8C20 7.751 19.907 7.512 19.74 7.328Z" fill="#71787E"/>
<path fill-rule="evenodd" clip-rule="evenodd" d="M12.5019 17.9179L11.5736 15.1336L14.3584 12.3482L12.5019 17.9179ZM13.6513 11.641L10.8665 14.4259L8.08162 13.4976L13.6513 11.641ZM15.998 10.4707C15.9955 10.4242 15.987 10.3792 15.9715 10.3356C15.9665 10.3201 15.961 10.3051 15.954 10.2901C15.93 10.2366 15.8995 10.1861 15.8565 10.1431C15.8134 10.1001 15.7629 10.0696 15.7089 10.0456C15.6944 10.0386 15.6799 10.0331 15.6644 10.0281C15.6199 10.0126 15.5744 10.0035 15.5269 10.001C15.5159 10.0005 15.5059 9.99805 15.4943 9.99805C15.4443 9.99905 15.3938 10.006 15.3448 10.0221L6.3421 13.023C6.13754 13.0915 6 13.282 6 13.4976C6 13.7132 6.13754 13.9042 6.3421 13.9722L10.6059 15.3937L12.0278 19.6579C12.0958 19.862 12.2864 19.9995 12.502 19.9995C12.7175 19.9995 12.9081 19.862 12.9761 19.6579L15.977 10.6552C15.993 10.6057 16.0005 10.5557 16.001 10.5057C16.0015 10.4937 15.9985 10.4827 15.998 10.4707Z" fill="white"/>
</svg>
