<svg width="24" height="24" viewBox="0 0 24 24" fill="none" xmlns="http://www.w3.org/2000/svg">
<path fill-rule="evenodd" clip-rule="evenodd" d="M14 3.978L17.742 8H14.714C14.32 8 14 7.619 14 7.15V3.978ZM19.741 7.328L15.296 2.328C15.107 2.119 14.838 2 14.556 2H6.556C5.146 2 4 3.122 4 4.5V19.5C4 20.878 5.146 22 6.556 22H17.444C18.854 22 20 20.878 20 19.5V8C20 7.751 19.908 7.512 19.741 7.328Z" fill="#71787E"/>
<path fill-rule="evenodd" clip-rule="evenodd" d="M14 3.978L17.742 8H14.714C14.32 8 14 7.619 14 7.15V3.978ZM19.741 7.328L15.296 2.328C15.107 2.119 14.838 2 14.556 2H6.556C5.146 2 4 3.122 4 4.5V19.5C4 20.878 5.146 22 6.556 22H17.444C18.854 22 20 20.878 20 19.5V8C20 7.751 19.908 7.512 19.741 7.328Z" fill="#71787E"/>
<path fill-rule="evenodd" clip-rule="evenodd" d="M14.0249 13.3454L12.6792 11.9997L13.6519 11.0265L14.9971 12.3717L14.0249 13.3454ZM15.7152 11.6771L15.7147 11.6766L14.3475 10.3095C13.9775 9.94044 13.3418 9.92297 12.9913 10.275L8.49926 14.7671C8.33647 14.9293 8.2356 15.1451 8.21463 15.3733L8.02538 17.4555C8.0124 17.6028 8.06483 17.7486 8.16969 17.8535C8.26407 17.9478 8.3914 17.9998 8.52272 17.9998C8.5382 17.9998 8.55318 17.9993 8.56816 17.9978L10.6504 17.8085C10.8791 17.7876 11.0943 17.6872 11.2566 17.5249L15.7492 13.0324C16.1127 12.6678 16.0972 12.0596 15.7152 11.6771Z" fill="white"/>
</svg>
