<svg width="18" height="14" viewBox="0 0 18 14" fill="none" xmlns="http://www.w3.org/2000/svg">
<path d="M17.125 5.67188H15.0156V3.45312C15.0156 3.10742 14.7363 2.82812 14.3906 2.82812H8.23828L5.94727 0.636719C5.91812 0.609429 5.87977 0.594092 5.83984 0.59375H0.875C0.529297 0.59375 0.25 0.873047 0.25 1.21875V12.7812C0.25 13.127 0.529297 13.4062 0.875 13.4062H14.5078C14.7617 13.4062 14.9922 13.252 15.0879 13.0156L17.7051 6.53125C17.7344 6.45703 17.75 6.37695 17.75 6.29688C17.75 5.95117 17.4707 5.67188 17.125 5.67188ZM1.65625 2H5.33789L7.67383 4.23438H13.6094V5.67188H3.64844C3.39453 5.67188 3.16406 5.82617 3.06836 6.0625L1.65625 9.5625V2ZM14.0645 12H2.10547L4.12305 7H16.084L14.0645 12Z" fill="#8C8C8C"/>
</svg>
