<svg width="24" height="24" viewBox="0 0 24 24" fill="none" xmlns="http://www.w3.org/2000/svg">
<path fill-rule="evenodd" clip-rule="evenodd" d="M14.714 8C14.32 8 14 7.619 14 7.15V3.978L17.742 8H14.714ZM19.74 7.328L15.296 2.328C15.107 2.119 14.838 2 14.556 2H6.556C5.147 2 4 3.122 4 4.5V19.5C4 20.878 5.147 22 6.556 22H17.444C18.854 22 20 20.878 20 19.5V8C20 7.751 19.907 7.512 19.74 7.328Z" fill="#71787E"/>
<path fill-rule="evenodd" clip-rule="evenodd" d="M13.6654 11.9167C13.6654 12.8358 12.9179 13.5833 11.9987 13.5833C11.0795 13.5833 10.332 12.8358 10.332 11.9167C10.332 10.9975 11.0795 10.25 11.9987 10.25C12.9179 10.25 13.6654 10.9975 13.6654 11.9167ZM14.9154 17.3333C14.9154 17.5633 14.7291 17.75 14.4987 17.75H9.4987C9.26828 17.75 9.08203 17.5633 9.08203 17.3333C9.08203 15.725 10.3908 14.4167 11.9987 14.4167C13.6066 14.4167 14.9154 15.725 14.9154 17.3333Z" fill="white"/>
</svg>
