<?xml version="1.0" encoding="iso-8859-1"?>
<!-- Uploaded to: SVG Repo, www.svgrepo.com, Generator: SVG Repo Mixer Tools -->
<!DOCTYPE svg PUBLIC "-//W3C//DTD SVG 1.1//EN" "http://www.w3.org/Graphics/SVG/1.1/DTD/svg11.dtd">
<svg fill="#000000" version="1.1" id="Capa_1" xmlns="http://www.w3.org/2000/svg" xmlns:xlink="http://www.w3.org/1999/xlink" 
	 width="800px" height="800px" viewBox="0 0 31.427 31.427"
	 xml:space="preserve">
<g>
	<g>
		<path d="M21.904,13.015c-5.076,0-9.205,4.13-9.205,9.206c0,5.077,4.129,9.206,9.205,9.206s9.205-4.129,9.205-9.206
			C31.109,17.145,26.98,13.015,21.904,13.015z M16.09,26.973c-0.949-1.109-1.537-2.437-1.711-3.863h2.266
			c0.061,1.129,0.227,2.198,0.5,3.187C16.772,26.496,16.418,26.723,16.09,26.973z M16.646,21.331h-2.266
			c0.174-1.425,0.76-2.75,1.709-3.859c0.322,0.247,0.676,0.474,1.057,0.677C16.871,19.134,16.703,20.202,16.646,21.331z
			 M17.403,28.191c0.115-0.076,0.23-0.146,0.348-0.211c0.103,0.223,0.207,0.437,0.318,0.641
			C17.839,28.488,17.615,28.345,17.403,28.191z M17.753,16.459c-0.125-0.068-0.24-0.137-0.351-0.208
			c0.213-0.154,0.437-0.298,0.666-0.431C17.958,16.023,17.853,16.236,17.753,16.459z M21.095,29.438
			c-0.676-0.33-1.303-1.062-1.805-2.104c0.575-0.175,1.182-0.289,1.805-0.343V29.438z M21.095,25.208
			c-0.846,0.06-1.654,0.211-2.414,0.452c-0.219-0.801-0.357-1.656-0.414-2.549h2.828V25.208z M21.095,21.331h-2.828
			c0.057-0.892,0.195-1.747,0.412-2.55c0.762,0.24,1.572,0.392,2.416,0.451V21.331z M21.095,17.449
			c-0.625-0.053-1.229-0.168-1.805-0.342c0.502-1.045,1.129-1.775,1.805-2.106V17.449z M22.716,15.002
			c0.674,0.331,1.301,1.062,1.803,2.105c-0.576,0.172-1.18,0.287-1.803,0.342V15.002z M22.716,29.439V26.99
			c0.627,0.055,1.231,0.168,1.805,0.342C24.019,28.377,23.392,29.107,22.716,29.439z M25.13,25.66
			c-0.761-0.241-1.57-0.393-2.414-0.453v-2.098h2.828C25.486,24.004,25.349,24.859,25.13,25.66z M22.716,21.331v-2.097
			c0.846-0.061,1.653-0.211,2.414-0.453c0.219,0.802,0.356,1.656,0.414,2.55H22.716z M25.74,28.62
			c0.108-0.202,0.216-0.414,0.315-0.636c0.123,0.067,0.238,0.137,0.349,0.207C26.192,28.345,25.972,28.488,25.74,28.62z
			 M26.06,16.461c-0.102-0.223-0.207-0.438-0.318-0.64c0.23,0.132,0.451,0.275,0.666,0.43C26.292,16.324,26.177,16.395,26.06,16.461
			z M27.716,17.465c0.951,1.112,1.539,2.439,1.713,3.866h-2.268c-0.059-1.127-0.227-2.197-0.5-3.188
			C27.035,17.943,27.388,17.716,27.716,17.465z M27.718,26.97c-0.321-0.248-0.676-0.475-1.055-0.677
			c0.273-0.985,0.439-2.055,0.498-3.184h2.268C29.257,24.533,28.669,25.859,27.718,26.97z"/>
		<path d="M13.514,28.015H2.187V8.924h7.057V1.867h13.361V12.05c0.641,0.044,1.264,0.147,1.867,0.305V0H8.057l-7.74,8.171v21.712
			h14.869C14.556,29.33,13.992,28.705,13.514,28.015z M7.374,3.436v3.621H3.945L7.374,3.436z"/>
		<path d="M15.65,14.174H4.424v2.104h9.201C14.196,15.483,14.878,14.775,15.65,14.174z"/>
		<path d="M4.424,18.331v2.104h7.441c0.13-0.73,0.331-1.437,0.607-2.104H4.424z"/>
		<path d="M4.424,22.675v2.104h7.613c-0.176-0.678-0.283-1.381-0.315-2.104H4.424z"/>
	</g>
</g>
</svg>