<svg width="24" height="24" viewBox="0 0 24 24" fill="none" xmlns="http://www.w3.org/2000/svg">
<path fill-rule="evenodd" clip-rule="evenodd" d="M14.714 8C14.32 8 14 7.619 14 7.15V3.978L17.742 8H14.714ZM19.74 7.328L15.296 2.328C15.107 2.119 14.838 2 14.556 2H6.556C5.147 2 4 3.122 4 4.5V19.5C4 20.878 5.147 22 6.556 22H17.444C18.854 22 20 20.878 20 19.5V8C20 7.751 19.907 7.512 19.74 7.328Z" fill="#71787E"/>
<path fill-rule="evenodd" clip-rule="evenodd" d="M7.08796 11.5627L11.8652 14.1618C11.9476 14.2067 12.0497 14.2067 12.1327 14.1618L16.9099 11.5627C17.1022 11.4578 17.0854 11.1898 16.8808 11.1074L12.1041 9.17936C12.0368 9.15245 11.9605 9.15245 11.8933 9.17936L7.11655 11.1074C6.91247 11.1898 6.89566 11.4578 7.08796 11.5627Z" fill="white"/>
<path fill-rule="evenodd" clip-rule="evenodd" d="M16.8812 13.452L15.8552 13.0146L12.1331 15.0397C12.0501 15.0846 11.9481 15.0846 11.8651 15.0397L8.14295 13.0146L7.11697 13.452C6.91233 13.5389 6.89551 13.8225 7.08838 13.933L11.8651 16.6785C11.9481 16.7261 12.0501 16.7261 12.1331 16.6785L16.9098 13.933C17.1027 13.8225 17.0858 13.5389 16.8812 13.452Z" fill="white"/>
<path fill-rule="evenodd" clip-rule="evenodd" d="M16.8812 15.9414L16.0083 15.5635L12.1331 17.6721C12.0501 17.7169 11.9481 17.7169 11.8651 17.6721L7.9899 15.5635L7.11697 15.9414C6.91233 16.0299 6.89551 16.3175 7.08838 16.4297L11.8651 19.215C11.9481 19.2632 12.0501 19.2632 12.1331 19.215L16.9098 16.4297C17.1027 16.3175 17.0858 16.0299 16.8812 15.9414Z" fill="white"/>
</svg>
