<?xml version="1.0" encoding="iso-8859-1"?>
<!-- Uploaded to: SVG Repo, www.svgrepo.com, Generator: SVG Repo Mixer Tools -->
<!DOCTYPE svg PUBLIC "-//W3C//DTD SVG 1.1//EN" "http://www.w3.org/Graphics/SVG/1.1/DTD/svg11.dtd">
<svg fill="#000000" version="1.1" id="Capa_1" xmlns="http://www.w3.org/2000/svg" xmlns:xlink="http://www.w3.org/1999/xlink" 
	 width="800px" height="800px" viewBox="0 0 44.062 44.062"
	 xml:space="preserve">
<g>
	<g>
		<path d="M41.715,39.831l-5.059-5.06c2.658-4.258,2.15-9.979-1.559-13.689c-4.312-4.313-11.33-4.314-15.644,0
			c-4.314,4.312-4.306,11.324,0.007,15.639c3.709,3.707,9.398,4.25,13.696,1.549l5.06,5.061c0.971,0.973,2.535,0.979,3.506,0.01
			C42.695,42.367,42.686,40.803,41.715,39.831z M32.991,34.616c-3.151,3.151-8.276,3.151-11.427,0
			c-3.151-3.149-3.151-8.276,0-11.427c3.149-3.15,8.276-3.15,11.427,0C36.141,26.34,36.141,31.467,32.991,34.616z"/>
		<path d="M24.102,12.426c-0.209-0.976-0.518-1.883-0.914-2.702c-0.818-0.396-1.726-0.708-2.702-0.913
			c0.218,0.952,0.383,2.012,0.492,3.124C22.088,12.043,23.148,12.207,24.102,12.426z"/>
		<path d="M22.521,17.35c0.575-0.236,1.17-0.429,1.78-0.577c0.057-0.502,0.09-1.017,0.09-1.542c0-0.6-0.043-1.188-0.117-1.758
			c-0.898-0.231-1.979-0.423-3.217-0.551c0.051,0.76,0.078,1.536,0.078,2.31c0,0.774-0.027,1.551-0.078,2.312
			C21.574,17.489,22.062,17.424,22.521,17.35z"/>
		<path d="M12.171,9.724c-0.395,0.818-0.707,1.726-0.911,2.702c0.951-0.219,2.011-0.383,3.122-0.491
			c0.109-1.112,0.273-2.172,0.492-3.124C13.899,9.016,12.991,9.328,12.171,9.724z"/>
		<path d="M16.922,21.918c0.439-0.651,0.946-1.271,1.522-1.846c0.479-0.479,0.991-0.913,1.529-1.303
			c0.006-0.053,0.011-0.107,0.017-0.161c-0.76,0.051-1.536,0.078-2.311,0.078c-0.774,0-1.55-0.027-2.309-0.078
			c0.127,1.24,0.32,2.318,0.55,3.216C16.25,21.867,16.583,21.899,16.922,21.918z"/>
		<path d="M11.087,13.472c-0.073,0.571-0.117,1.159-0.117,1.758c0,0.601,0.043,1.188,0.117,1.759
			c0.897,0.232,1.977,0.425,3.216,0.552c-0.051-0.76-0.077-1.537-0.077-2.311c0-0.773,0.026-1.549,0.077-2.31
			C13.063,13.05,11.984,13.242,11.087,13.472z"/>
		<path d="M15.62,24.424c0.032-0.084,0.064-0.168,0.098-0.25c-0.21-0.43-0.4-0.927-0.567-1.478
			c-0.758-0.134-1.482-0.325-2.167-0.569C13.718,23.165,14.618,23.956,15.62,24.424z"/>
		<path d="M14.874,21.652c-0.218-0.952-0.382-2.012-0.492-3.124c-1.111-0.107-2.171-0.271-3.122-0.491
			c0.204,0.976,0.516,1.884,0.911,2.704C12.991,21.135,13.899,21.446,14.874,21.652z"/>
		<path d="M20.159,15.231c0-0.847-0.031-1.643-0.083-2.394c-0.753-0.053-1.548-0.084-2.396-0.084s-1.643,0.032-2.394,0.084
			c-0.052,0.751-0.084,1.547-0.084,2.394c0,0.849,0.032,1.644,0.084,2.396c0.751,0.052,1.546,0.083,2.394,0.083
			c0.849,0,1.643-0.032,2.396-0.083C20.127,16.875,20.159,16.08,20.159,15.231z"/>
		<path d="M13.043,23.715c-0.606-0.64-1.144-1.398-1.59-2.254c-0.856-0.448-1.616-0.984-2.255-1.591
			C10.086,21.487,11.424,22.825,13.043,23.715z"/>
		<path d="M10.785,19.928c-0.244-0.684-0.435-1.41-0.57-2.168c-0.722-0.218-1.353-0.475-1.857-0.771
			C8.799,18.114,9.642,19.12,10.785,19.928z"/>
		<path d="M9.198,10.594c0.639-0.607,1.399-1.143,2.255-1.589c0.447-0.856,0.984-1.617,1.59-2.255
			C11.424,7.638,10.086,8.975,9.198,10.594z"/>
		<path d="M8.01,15.231c0,0.46,0.729,1,2.058,1.458c-0.047-0.477-0.074-0.963-0.074-1.458c0-0.494,0.027-0.979,0.074-1.456
			C8.739,14.233,8.01,14.771,8.01,15.231z"/>
		<path d="M15.748,33.684H7.451c-0.575,0-1.035-0.48-1.035-1.057v-2.388c0-0.576,0.46-1.035,1.035-1.035H14.8
			c-0.031-1.233,0.115-2.433,0.437-3.616c-4.697-1.107-8.203-5.33-8.203-10.36c0-5.869,4.775-10.643,10.645-10.643
			c5.872,0,10.646,4.776,10.646,10.645c0,0.415-0.032,0.824-0.079,1.227c1.967,0.151,3.871,0.757,5.494,1.766v-13.5
			C33.74,2.094,31.604,0,28.977,0H6.37C3.741,0,1.615,2.094,1.615,4.723v29.751c0,2.629,2.126,4.726,4.755,4.726h13.88
			c-0.637-0.39-1.24-0.925-1.799-1.483C17.257,36.521,16.357,35.176,15.748,33.684z"/>
		<path d="M25.773,16.508c1.023-0.415,1.576-0.876,1.576-1.277c0-0.46-0.728-0.998-2.059-1.456c0.049,0.476,0.075,0.962,0.075,1.456
			c0,0.455-0.022,0.903-0.065,1.343C25.458,16.549,25.616,16.527,25.773,16.508z"/>
		<path d="M10.215,12.703c0.135-0.758,0.326-1.484,0.57-2.168c-1.143,0.808-1.987,1.815-2.427,2.938
			C8.863,13.179,9.493,12.921,10.215,12.703z"/>
		<path d="M22.377,8.338c-0.807-1.143-1.815-1.987-2.938-2.428c0.294,0.505,0.552,1.135,0.771,1.857
			C20.966,7.902,21.693,8.093,22.377,8.338z"/>
		<path d="M22.318,6.749c0.605,0.639,1.142,1.399,1.589,2.255c0.856,0.446,1.616,0.982,2.256,1.589
			C25.275,8.975,23.936,7.638,22.318,6.749z"/>
		<path d="M27.001,13.473c-0.438-1.123-1.284-2.131-2.426-2.938c0.244,0.684,0.437,1.41,0.571,2.168
			C25.867,12.921,26.497,13.179,27.001,13.473z"/>
		<path d="M12.984,8.338c0.683-0.245,1.409-0.436,2.167-0.571c0.22-0.722,0.476-1.353,0.771-1.857
			C14.799,6.349,13.791,7.195,12.984,8.338z"/>
		<path d="M19.138,7.62c-0.458-1.331-0.999-2.059-1.458-2.059s-0.999,0.728-1.458,2.059c0.477-0.048,0.964-0.074,1.458-0.074
			C18.175,7.546,18.661,7.573,19.138,7.62z"/>
		<path d="M15.37,11.854c0.759-0.05,1.535-0.077,2.309-0.077c0.775,0,1.551,0.026,2.311,0.077c-0.127-1.239-0.321-2.318-0.552-3.216
			c-0.57-0.073-1.157-0.116-1.759-0.116c-0.6,0-1.187,0.043-1.759,0.116C15.69,9.535,15.497,10.615,15.37,11.854z"/>
	</g>
</g>
</svg>