<svg width="24" height="24" viewBox="0 0 24 24" fill="none" xmlns="http://www.w3.org/2000/svg">
<path d="M11.4238 2C11.1798 2 10.9697 2.17697 10.9297 2.41797L10.6465 4.12305C10.1597 4.20672 9.68918 4.33608 9.23633 4.50391L8.13477 3.16797C7.97977 2.97897 7.71005 2.92973 7.49805 3.05273L6.50195 3.62891C6.28995 3.75091 6.1972 4.00833 6.2832 4.23633L6.88867 5.85352C6.51324 6.1664 6.1664 6.51324 5.85352 6.88867L4.23633 6.2832C4.00833 6.1972 3.75091 6.28995 3.62891 6.50195L3.05273 7.49805C2.92973 7.71005 2.97897 7.97977 3.16797 8.13477L4.50391 9.23633C4.33608 9.68918 4.20672 10.1597 4.12305 10.6465L2.41797 10.9297C2.17697 10.9707 2 11.1788 2 11.4238V12.5762C2 12.8202 2.17697 13.0303 2.41797 13.0703L4.12305 13.3535C4.20672 13.8403 4.33608 14.3108 4.50391 14.7637L3.16797 15.8652C2.97897 16.0202 2.93073 16.29 3.05273 16.502L3.62891 17.498C3.75091 17.71 4.00833 17.8028 4.23633 17.7168L5.85352 17.1113C6.1664 17.4868 6.51324 17.8336 6.88867 18.1465L6.2832 19.7637C6.1972 19.9927 6.29095 20.2491 6.50195 20.3711L7.49805 20.9473C7.71005 21.0693 7.97977 21.02 8.13477 20.832L9.23438 19.4961C9.68775 19.6642 10.1591 19.7932 10.6465 19.877L10.9297 21.582C10.9707 21.823 11.1788 22 11.4238 22H12.5762C12.8202 22 13.0303 21.823 13.0703 21.582L13.3535 19.877C13.8403 19.7933 14.3108 19.6639 14.7637 19.4961L15.8652 20.832C16.0202 21.021 16.29 21.0693 16.502 20.9473L17.498 20.3711C17.71 20.2491 17.8028 19.9917 17.7168 19.7637L17.1113 18.1465C17.4868 17.8336 17.8336 17.4868 18.1465 17.1113L19.7637 17.7168C19.9927 17.8028 20.2491 17.709 20.3711 17.498L20.9473 16.502C21.0693 16.29 21.02 16.0202 20.832 15.8652L19.4961 14.7656C19.6642 14.3123 19.7932 13.8409 19.877 13.3535L21.582 13.0703C21.823 13.0293 22 12.8212 22 12.5762V11.4238C22 11.1798 21.823 10.9697 21.582 10.9297L19.877 10.6465C19.7933 10.1597 19.6639 9.68918 19.4961 9.23633L20.832 8.13477C21.021 7.97977 21.0693 7.71005 20.9473 7.49805L20.3711 6.50195C20.2491 6.28995 19.9917 6.1972 19.7637 6.2832L18.1465 6.88867C17.8336 6.51324 17.4868 6.1664 17.1113 5.85352L17.7168 4.23633C17.8028 4.00733 17.709 3.75091 17.498 3.62891L16.502 3.05273C16.29 2.93073 16.0202 2.97997 15.8652 3.16797L14.7656 4.50391C14.3123 4.33576 13.8409 4.20682 13.3535 4.12305L13.0703 2.41797C13.0293 2.17697 12.8212 2 12.5762 2H11.4238ZM11 6.08984V9.17383C10.4155 9.38049 9.90931 9.76319 9.55116 10.2693C9.19301 10.7754 9.00047 11.38 9 12C9.00005 12.1841 9.01705 12.3678 9.05078 12.5488L6.37891 14.0898C6.13823 13.4388 6 12.737 6 12C6 9.01614 8.15536 6.5638 11 6.08984ZM13 6.08984C15.8446 6.5638 18 9.01614 18 12C18 12.7379 17.8604 13.4401 17.6191 14.0918L14.9473 12.5469C14.9815 12.3666 14.9992 12.1835 15 12C14.9991 11.3803 14.8064 10.7761 14.4483 10.2704C14.0902 9.76474 13.5842 9.38234 13 9.17578V6.08984ZM13.9473 14.2773L16.6289 15.8262C15.5304 17.156 13.8686 18 12 18C10.1314 18 8.46961 17.156 7.37109 15.8262L10.0508 14.2793C10.5939 14.7441 11.2851 14.9997 12 15C12.7144 14.9987 13.4049 14.7424 13.9473 14.2773Z" fill="#71787E"/>
</svg>
