<svg width="24" height="24" viewBox="0 0 24 24" fill="none" xmlns="http://www.w3.org/2000/svg">
<path fill-rule="evenodd" clip-rule="evenodd" d="M18 15.001C17.183 15.001 16.443 15.331 15.901 15.862L7.966 12.336C7.979 12.225 8 12.115 8 12.001C8 11.887 7.979 11.777 7.966 11.666L15.901 8.13998C16.443 8.67098 17.183 9.00098 18 9.00098C19.654 9.00098 21 7.65498 21 6.00098C21 4.34698 19.654 3.00098 18 3.00098C16.346 3.00098 15 4.34698 15 6.00098C15 6.11498 15.021 6.22498 15.034 6.33598L7.099 9.86198C6.557 9.33098 5.817 9.00098 5 9.00098C3.346 9.00098 2 10.347 2 12.001C2 13.655 3.346 15.001 5 15.001C5.817 15.001 6.557 14.671 7.099 14.14L15.034 17.666C15.021 17.777 15 17.887 15 18.001C15 19.655 16.346 21.001 18 21.001C19.654 21.001 21 19.655 21 18.001C21 16.347 19.654 15.001 18 15.001Z" fill="#71787E"/>
</svg>
