<svg width="24" height="24" viewBox="0 0 24 24" fill="none" xmlns="http://www.w3.org/2000/svg">
<path fill-rule="evenodd" clip-rule="evenodd" d="M14 3.978L17.742 8H14.714C14.32 8 14 7.619 14 7.15V3.978ZM19.741 7.328L15.296 2.328C15.107 2.119 14.838 2 14.556 2H6.556C5.146 2 4 3.122 4 4.5V19.5C4 20.878 5.146 22 6.556 22H17.444C18.854 22 20 20.878 20 19.5V8C20 7.751 19.908 7.512 19.741 7.328Z" fill="#71787E"/>
<path fill-rule="evenodd" clip-rule="evenodd" d="M14 3.978L17.742 8H14.714C14.32 8 14 7.619 14 7.15V3.978ZM19.741 7.328L15.296 2.328C15.107 2.119 14.838 2 14.556 2H6.556C5.146 2 4 3.122 4 4.5V19.5C4 20.878 5.146 22 6.556 22H17.444C18.854 22 20 20.878 20 19.5V8C20 7.751 19.908 7.512 19.741 7.328Z" fill="#71787E"/>
<path fill-rule="evenodd" clip-rule="evenodd" d="M12.0001 19.0003C14.7577 19.0003 17.0003 16.7572 17.0003 14.0001C17.0003 11.2431 14.7577 9 12.0001 9C9.24306 9 7 11.2431 7 14.0001C7 16.7572 9.24306 19.0003 12.0001 19.0003Z" fill="white"/>
<path fill-rule="evenodd" clip-rule="evenodd" d="M13.5068 13.4998L12.4961 12.4878L13.2267 11.7559L14.237 12.7675L13.5068 13.4998ZM14.777 12.2451L14.7767 12.2447L13.7498 11.2166C13.4719 10.9391 12.9945 10.9259 12.7312 11.1907L9.35737 14.5689C9.23511 14.6909 9.15935 14.8531 9.1436 15.0247L9.00146 16.5907C8.99171 16.7015 9.03109 16.8111 9.10985 16.89C9.18073 16.9609 9.27636 17 9.375 17C9.38662 17 9.39788 16.9996 9.40913 16.9985L10.973 16.8562C11.1448 16.8404 11.3064 16.7649 11.4283 16.6429L14.8025 13.2643C15.0756 12.9902 15.0639 12.5328 14.777 12.2451Z" fill="#71787E"/>
</svg>
